# xmcd
#
# Track frame offsets:
#	182
#	15667
#	29440
#	41945
#	55120
#	68952
#	83937
#	98537
#	111982
#	125627
#	139010
#	153087
#	166057
#	178762
#	192302
#	206202
#	229687
#	247917
#
# Disc length: 3511 seconds
# Revision: 4
# Processed by: cddbd v1.5.2PL0 Copyright (c) Steve Scherf et al.
# Submitted via: dBpowerAMP V12.0
#
DISCID=f40db512
DTITLE=Various Artist - Blues Masters, Volume 11: Classic Blues Women [Rhino R2 71134]
DYEAR=1993
DGENRE=Blues
TTITLE0=Mamie Smith and Her Jazz Hounds - Crazy Blues
TTITLE1=Clarence Williams' Blue Five - Papa De-Da-Da
TTITLE2=Trixie Smith and The Jazz Masters - My Man Rocks Me (With One Steady Roll)
TTITLE3=Trixie Smith - Railroad Blues
TTITLE4="Ma" Rainey With Her Georgia Jazz Band - Yonder Come the Blues
TTITLE5=Ma Rainey Acc. by Her Georgia Jazz Band - Countin' the Blues
TTITLE6=Ma Rainey - Daddy Goodbye Blues
TTITLE7=Sippie Wallace with Clarence Williams' Blue Five - Baby, I Can't Use You No More
TTITLE8=Ida Cox - Bone Orchard Blues
TTITLE9=Bessie Smith - Nobody Knows You When You're Down and Out
TTITLE10=Mary Johnson - Barrel House Flat Blues
TTITLE11=Margaret Johnson with the Black and Blue Trio - When a 'Gator Holler, Folks Say It's a Sign of Rain
TTITLE12=Victoria Spivey and Her Chicago Four - Any-Kind-A-Man
TTITLE13=Alberta Hunter - You Can't Tell the Difference After Dark
TTITLE14=Henry Brown and Edith Johnson - Little Drops of Water
TTITLE15=Billie and Dee Dee Pierce - Married Man Blues
TTITLE16=Billie and Dee Dee Pierce - Careless Love
TTITLE17=Billie Holiday - Stormy Blues
EXTD=
EXTT0=
EXTT1=
EXTT2=
EXTT3=
EXTT4=
EXTT5=
EXTT6=
EXTT7=
EXTT8=
EXTT9=
EXTT10=
EXTT11=
EXTT12=
EXTT13=
EXTT14=
EXTT15=
EXTT16=
EXTT17=
PLAYORDER=
